<?xml version="1.0" standalone="no"?>
<!DOCTYPE svg PUBLIC "-//W3C//DTD SVG 20010904//EN"
 "http://www.w3.org/TR/2001/REC-SVG-20010904/DTD/svg10.dtd">
<svg version="1.0" xmlns="http://www.w3.org/2000/svg"
 width="590.000000pt" height="332.000000pt" viewBox="0 0 590.000000 332.000000"
 preserveAspectRatio="xMidYMid meet">
<metadata>
Created by potrace 1.16, written by Peter Selinger 2001-2019
</metadata>
<g transform="translate(0.000000,332.000000) scale(0.100000,-0.100000)"
fill="#000000" stroke="none">
<path d="M1027 3309 c-49 -11 -117 -46 -117 -60 0 -10 88 -221 139 -334 28
-61 165 -383 189 -445 24 -62 27 -74 12 -65 -19 11 -10 -6 15 -31 25 -25 35
-51 14 -39 -16 11 -269 14 -263 4 3 -5 -8 -9 -25 -9 -35 0 -49 -15 -24 -25 30
-11 -40 -39 -74 -30 -16 5 -31 8 -35 7 -4 -1 -18 12 -32 28 -36 44 -38 37 -4
-25 79 -147 48 -323 -80 -450 -55 -54 -159 -115 -198 -115 -14 0 -11 -4 10
-15 15 -8 35 -15 44 -15 8 0 24 -8 35 -17 19 -18 20 -17 7 6 -11 21 -10 26 6
38 10 7 36 18 59 24 38 11 41 10 67 -22 16 -18 28 -37 28 -41 0 -4 7 -8 15 -8
20 0 41 -40 26 -50 -8 -5 -9 -14 -2 -32 5 -15 12 -56 16 -93 6 -76 16 -101 45
-110 31 -10 86 13 116 47 29 36 28 65 -6 131 -27 50 -25 64 8 72 23 6 31 2 57
-32 75 -96 143 -139 201 -130 19 3 41 13 50 21 8 9 20 16 25 16 5 0 9 10 9 23
0 18 2 19 10 7 7 -12 10 -12 10 -1 0 7 6 11 14 8 8 -3 22 3 32 14 9 10 22 19
29 19 6 0 22 11 35 25 l24 25 -24 32 c-15 21 -19 33 -12 36 7 2 12 8 12 14 0
6 -8 7 -17 4 -17 -6 -17 -5 0 8 14 11 15 15 4 19 -32 12 1 82 36 73 13 -3 17
0 13 10 -3 8 -1 14 5 14 6 0 9 8 8 18 -5 49 3 72 32 99 17 15 39 36 47 46 13
14 33 17 104 17 l88 0 0 -49 0 -49 848 -5 c869 -7 928 -7 997 -2 22 1 75 3
118 4 76 1 77 1 77 27 0 14 4 23 9 20 5 -4 11 -2 13 4 2 6 12 12 23 14 11 2
51 11 88 20 38 9 92 16 120 16 82 0 113 22 163 115 24 44 42 86 39 93 -3 7 -1
10 5 7 5 -3 8 3 8 12 -1 10 18 58 40 107 l42 89 32 -7 c66 -14 103 -19 96 -12
-3 4 -12 9 -20 10 -32 6 -98 27 -98 31 0 3 10 24 21 48 l22 44 45 -13 c53 -16
65 -17 58 -5 -4 5 -24 12 -46 16 -22 4 -42 10 -45 15 -3 4 15 49 40 99 25 51
45 93 45 95 0 2 40 87 90 190 144 299 143 295 78 321 -24 9 -46 22 -50 28 -9
15 -3580 20 -3641 6z m2328 -145 c627 -3 1142 -7 1144 -9 2 -3 -14 -48 -37
-102 -22 -54 -112 -275 -201 -492 -88 -217 -165 -397 -170 -400 -5 -3 -575 -5
-1266 -5 -1042 2 -1259 4 -1270 15 -7 8 -27 52 -45 99 -17 47 -70 186 -117
310 -47 124 -93 257 -103 296 -10 39 -30 88 -45 110 l-26 39 33 7 c42 8 63 8
1362 2 963 -5 1078 -4 1073 9 -8 21 20 44 35 29 8 -8 8 -15 -2 -27 -11 -13 -1
-15 92 -15 l104 0 12 32 c6 17 10 33 8 35 -2 2 -565 6 -1252 9 -1434 5 -1483
6 -1501 31 -33 44 -42 43 510 38 287 -2 1035 -7 1662 -11z m-1948 -1487 c-3
-49 -10 -94 -14 -98 -14 -14 -72 7 -93 33 -31 37 -25 68 23 119 32 35 47 44
66 41 24 -5 24 -6 18 -95z"/>
<path d="M343 2416 c-60 -19 -106 -50 -157 -107 -44 -49 -92 -151 -81 -170 4
-5 1 -24 -6 -42 -9 -26 -8 -45 5 -97 69 -272 409 -360 619 -161 85 80 136 210
122 306 -12 77 -25 105 -58 120 -22 10 -25 14 -10 11 l23 -4 -23 28 c-22 29
-46 39 -202 80 -44 12 -93 28 -109 36 -35 17 -67 17 -123 0z"/>
<path d="M5643 2187 c-11 -12 -37 -35 -57 -52 -21 -16 -53 -50 -72 -74 -19
-24 -34 -42 -34 -39 0 3 -15 -9 -33 -26 -79 -74 -106 -86 -214 -94 l-102 -7
217 -115 c119 -63 221 -116 227 -118 14 -3 102 530 90 545 -1 2 -11 -7 -22
-20z"/>
<path d="M2880 1883 c0 -5 15 -8 33 -9 55 -1 106 -8 104 -13 -2 -6 8 -11 21
-10 4 0 39 -1 77 -2 39 -1 92 -3 119 -3 65 -1 72 -22 9 -26 -56 -3 -69 -3
-103 0 -14 1 -125 1 -247 0 -203 -1 -223 -2 -223 -18 -1 -16 -1 -16 -11 1 -8
14 -24 17 -84 17 l-75 0 0 -39 c0 -45 9 -51 83 -51 55 0 71 6 80 30 4 12 6 12
6 -2 1 -9 9 -19 19 -22 13 -4 386 -9 452 -6 54 2 70 3 115 1 85 -4 757 9 765
14 7 4 3 65 -4 72 -1 2 -31 3 -67 2 -35 0 -74 1 -86 1 -30 2 -132 3 -158 3
-11 -1 -54 0 -95 1 -43 2 -78 -1 -82 -7 -4 -7 -11 -7 -21 1 -8 7 -19 12 -23
11 -23 -4 -57 2 -50 8 4 5 56 9 114 10 217 3 494 13 503 19 35 21 -37 24 -581
24 -324 0 -590 -3 -590 -7z"/>
<path d="M1567 1533 c-2 -192 -10 -421 -17 -510 -11 -133 -11 -164 -1 -177 11
-13 33 -16 115 -14 l101 2 -93 3 -93 4 5 97 c3 53 8 201 11 329 3 127 8 241
10 253 2 11 7 84 10 161 7 144 -2 199 -31 199 -11 0 -14 -64 -17 -347z"/>
<path d="M2157 1813 c-4 -3 -7 -21 -7 -39 0 -40 22 -49 102 -40 64 7 66 7 146
0 74 -7 94 4 90 50 l-3 31 -77 3 c-57 2 -78 -1 -78 -10 0 -9 -3 -9 -12 0 -13
13 -149 17 -161 5z"/>
<path d="M1634 1707 c-3 -8 -4 -41 -2 -73 l3 -59 57 -3 c87 -5 100 6 96 81
l-3 62 -73 3 c-55 2 -74 0 -78 -11z"/>
<path d="M1804 1706 c-3 -7 -4 -40 -2 -72 l3 -59 57 -3 c32 -2 67 2 79 8 15 9
24 9 32 1 12 -12 116 -15 134 -3 6 4 13 30 16 57 l3 50 2 -51 c2 -59 9 -64 81
-64 70 0 83 13 79 85 l-3 60 -70 3 c-54 2 -72 0 -81 -13 -10 -14 -12 -14 -18
0 -4 11 -21 15 -70 15 -36 0 -68 -5 -71 -10 -4 -7 -12 -7 -25 0 -29 15 -140
13 -146 -4z"/>
<path d="M2307 1713 c-4 -3 -7 -34 -7 -69 0 -71 4 -74 81 -74 35 0 54 5 68 19
19 19 19 19 24 0 4 -16 14 -19 62 -19 31 0 66 5 77 11 14 8 23 8 31 0 14 -14
112 -14 137 -1 12 7 21 7 25 0 9 -14 1203 -4 1221 10 11 10 11 81 -1 117 -3 9
-183 12 -777 10 l-773 -2 -6 -50 -6 -50 -1 46 c-2 32 -7 49 -18 53 -21 8 -129
8 -137 -1z"/>
<path d="M4551 1404 c-66 -134 -123 -244 -127 -244 -4 0 -4 3 -1 6 3 4 1 16
-5 28 -10 20 -10 20 7 6 17 -14 17 -14 7 6 -12 23 -10 28 119 293 51 104 55
117 41 129 -14 11 -29 -14 -124 -201 -68 -135 -114 -214 -123 -214 -8 0 -15 4
-15 9 0 4 5 8 10 8 6 0 10 9 10 20 0 11 18 58 39 105 38 80 39 86 22 97 -11 7
-16 19 -14 29 8 27 -26 37 -43 13 -7 -10 -18 -25 -24 -31 -6 -7 -10 -16 -10
-20 0 -18 -26 -6 -35 15 -5 12 -13 22 -17 22 -11 0 -5 -281 5 -297 4 -7 9
-111 11 -230 3 -190 1 -220 -13 -231 -15 -11 -15 -12 0 -6 19 6 34 -32 16 -43
-7 -3 -9 -3 -5 2 13 13 -36 32 -70 27 -21 -3 -32 0 -32 8 0 6 -7 19 -16 27
-13 13 -13 17 -2 24 12 8 -25 14 -59 10 -8 -1 -13 9 -13 23 0 15 -8 30 -19 36
-11 5 -98 10 -201 11 -107 1 -177 5 -169 10 8 5 37 9 66 9 28 0 63 4 78 10 17
7 24 7 20 0 -3 -6 -2 -10 3 -10 6 0 12 6 15 14 5 11 101 28 177 31 10 0 15 14
17 53 2 28 -2 52 -7 52 -5 0 -7 -7 -3 -16 5 -13 3 -15 -13 -6 -25 13 -126 18
-144 7 -9 -5 -11 -4 -6 4 4 6 2 18 -4 26 -7 8 -9 15 -6 15 4 0 2 10 -5 21 -8
15 -8 19 0 15 6 -4 16 -4 23 0 6 4 36 8 67 10 84 5 86 6 86 36 0 15 -4 28 -10
28 -5 0 -3 5 5 10 9 6 10 10 3 10 -6 0 -13 15 -15 33 l-3 32 -105 6 -105 5 91
2 c111 2 128 12 122 70 -2 25 1 42 7 42 5 0 3 5 -5 10 -8 5 -10 10 -5 10 6 0
3 5 -5 10 -8 6 -74 10 -150 9 -198 -1 -244 0 -237 7 3 3 87 6 186 7 116 1 184
6 191 13 6 6 10 36 8 70 l-3 59 -657 2 c-613 2 -658 1 -658 -15 -1 -16 -1 -16
-11 1 -14 24 -143 25 -157 1 -8 -15 -10 -15 -15 0 -5 13 -21 16 -75 16 -37 0
-73 -5 -79 -11 -8 -8 -13 -8 -17 0 -11 17 -131 14 -146 -4 -11 -14 -14 -14
-24 0 -9 12 -27 15 -76 13 l-65 -3 -6 -50 c-6 -49 -6 -49 -7 -10 -3 55 -16 65
-81 65 -78 0 -83 -5 -79 -81 l3 -64 68 -3 c62 -3 68 -1 76 20 l8 22 12 -22
c11 -21 18 -23 79 -20 61 3 67 5 72 28 l6 25 7 -27 c7 -27 10 -28 68 -28 33 0
69 5 79 10 13 7 21 7 25 0 3 -5 15 -10 26 -10 10 0 19 -4 19 -8 0 -5 -34 -7
-75 -4 -50 3 -80 1 -89 -7 -11 -9 -20 -9 -35 -2 -22 12 -83 14 -118 5 -17 -5
-23 -14 -23 -35 0 -25 4 -29 27 -29 l27 0 -22 -20 c-32 -30 -27 -35 11 -11 71
45 110 62 134 59 l25 -3 -38 -47 c-20 -27 -45 -48 -55 -48 -19 0 -24 -10 -38
-80 -5 -25 -16 -69 -24 -99 -19 -68 -13 -94 20 -88 18 3 23 1 19 -10 -3 -8 -2
-11 3 -8 5 3 12 1 16 -5 11 -18 24 -1 70 91 48 95 100 161 146 185 37 19 48
18 44 -3 -2 -10 -4 -26 -4 -35 -1 -10 -10 -25 -21 -35 -18 -17 -69 -129 -91
-198 -5 -16 -6 -44 -3 -62 5 -25 2 -33 -16 -43 -12 -6 -28 -9 -36 -6 -8 3 -14
-1 -14 -9 0 -8 6 -15 13 -15 7 -1 6 -6 -5 -14 -9 -7 -22 -33 -28 -59 -12 -54
-40 -109 -59 -115 -11 -4 -13 6 -9 42 6 50 6 51 -23 36 -22 -12 -26 -58 -5
-66 8 -3 19 -25 25 -49 10 -39 8 -50 -14 -101 -14 -31 -25 -66 -25 -77 0 -26
-39 -107 -51 -107 -5 0 -27 7 -49 16 -23 9 -43 14 -46 11 -3 -3 4 -8 15 -12
12 -3 63 -26 115 -50 81 -38 94 -47 89 -65 -3 -11 -11 -20 -18 -20 -7 0 -15
-10 -19 -23 -3 -12 -18 -36 -33 -52 -15 -17 -29 -35 -30 -40 -1 -6 -8 -11 -16
-13 -17 -4 -220 74 -312 120 -70 35 -211 67 -225 51 -5 -6 -53 -123 -95 -236
-7 -16 42 -17 935 -17 635 0 939 3 935 10 -4 6 -11 8 -16 5 -14 -9 -29 38 -17
53 10 11 4 16 -14 13 -11 -1 -30 38 -23 49 3 6 1 10 -5 10 -7 0 -10 7 -6 15 3
8 0 15 -6 15 -7 0 -4 6 5 13 14 10 15 16 4 34 -41 73 -146 246 -177 293 -21
30 -40 71 -44 90 -12 57 -48 163 -64 188 -13 20 -13 25 -1 33 12 7 11 9 -2 9
-19 0 -37 39 -43 90 -2 21 -13 42 -28 55 -36 29 -41 52 -16 69 16 11 25 13 35
4 7 -6 13 -7 13 -3 0 11 45 -48 73 -95 17 -29 24 -54 20 -68 -3 -14 -1 -22 7
-22 6 0 10 -6 7 -12 -7 -22 18 -80 67 -153 45 -68 46 -69 46 -37 0 19 -9 68
-19 110 -11 43 -22 97 -26 122 -12 75 -68 209 -146 350 -17 30 -19 74 -4 88 8
9 45 -11 45 -24 0 -8 7 -14 15 -14 8 0 15 -4 15 -9 0 -5 9 -13 20 -16 39 -13
93 -76 137 -162 54 -106 73 -130 85 -109 4 8 4 26 -2 41 -5 14 -10 38 -10 53
0 33 -29 125 -54 172 -10 19 -36 52 -58 73 -24 24 -37 45 -34 54 4 11 2 13 -9
10 -8 -4 -17 -1 -21 5 -9 14 108 2 152 -17 17 -7 50 -29 72 -49 48 -44 61 -46
33 -7 -27 37 -26 51 0 51 26 0 75 -32 112 -74 33 -37 54 -72 38 -62 -14 9 -14
9 3 -50 8 -27 17 -80 19 -119 3 -38 10 -83 16 -99 7 -16 11 -39 9 -50 -4 -28
-46 62 -99 214 -45 126 -54 141 -75 133 -14 -5 -20 -33 -6 -33 17 0 34 -46 37
-104 4 -73 31 -137 80 -189 37 -40 45 -67 20 -67 -20 0 -20 -41 0 -144 8 -44
13 -81 10 -84 -9 -9 -44 83 -51 136 -4 34 -11 52 -20 52 -8 0 -14 -5 -14 -11
0 -5 -12 -14 -27 -20 -20 -6 -34 -23 -47 -55 -19 -47 -40 -54 -42 -13 -2 49
-42 94 -46 52 -3 -40 4 -56 43 -93 41 -39 41 -40 35 -93 -8 -58 -1 -87 20 -87
7 0 11 -6 9 -13 -6 -14 48 -52 85 -61 14 -3 19 -3 12 0 -6 3 -9 10 -6 15 3 6
-3 33 -14 62 -31 79 -35 91 -38 105 -5 24 15 11 45 -30 27 -37 31 -50 31 -108
0 -36 4 -70 9 -75 18 -21 30 -72 18 -84 -20 -20 8 -11 45 14 20 14 40 25 43
25 3 0 47 20 97 45 50 25 92 44 93 43 1 -2 14 -22 29 -46 14 -23 42 -67 61
-96 l34 -54 -97 -57 c-113 -67 -312 -195 -312 -201 0 -2 237 -4 528 -4 l527 0
-30 25 c-16 13 -27 24 -22 25 4 0 -7 14 -25 30 -18 17 -25 27 -15 24 9 -3 17
-10 17 -15 0 -16 28 2 33 21 6 25 -28 37 -50 18 -11 -8 -14 -9 -10 -1 4 7 0
21 -10 33 -10 11 -18 24 -18 28 0 4 -4 12 -8 19 -4 6 -3 23 3 38 16 41 12 102
-9 143 -13 27 -22 80 -31 199 -7 90 -17 163 -22 163 -5 0 -4 8 1 19 6 10 8 21
4 25 -3 3 -6 19 -5 36 0 17 -4 28 -9 25 -5 -4 -9 1 -9 9 0 9 5 16 10 16 14 0
6 98 -9 113 -14 14 -15 51 -1 42 16 -10 12 25 -5 41 -17 18 -20 34 -5 34 6 0
10 -4 10 -10 0 -5 9 -10 20 -10 12 0 32 -7 46 -16 13 -9 27 -15 29 -12 6 5
-74 51 -93 54 -19 3 -22 8 -13 22 6 10 27 3 86 -27 43 -23 79 -40 80 -38 0 1
32 66 70 144 38 79 70 141 72 139 3 -3 -14 -154 -22 -193 -4 -14 -10 -20 -23
-17 -13 4 -23 -7 -41 -42 -22 -46 -22 -49 -5 -61 16 -11 20 -10 31 9 11 21 12
21 13 4 1 -56 31 64 45 179 16 127 52 262 43 160 -1 -22 2 -42 7 -45 6 -3 12
28 15 80 4 67 11 96 33 139 32 60 28 71 -26 76 l-36 3 -120 -244z"/>
<path d="M1636 1551 c-9 -15 -17 -101 -11 -120 6 -20 13 -21 114 -21 70 0 111
4 119 12 7 7 12 38 12 69 0 44 -4 58 -17 63 -21 9 -212 6 -217 -3z"/>
<path d="M1627 1384 c-4 -4 -7 -36 -7 -71 l0 -63 134 0 c128 0 136 1 150 22
16 22 16 22 16 1 0 -36 -21 -42 -161 -45 l-134 -3 -6 -60 c-3 -33 -4 -66 -1
-72 3 -9 31 -13 96 -13 l92 0 24 41 c14 22 30 46 36 52 5 7 13 21 18 32 6 16
9 17 17 5 9 -13 10 -12 6 2 -4 9 1 19 10 22 11 5 13 2 8 -11 -4 -10 -11 -30
-17 -45 -5 -15 -18 -28 -30 -30 -12 -2 -23 -9 -26 -17 -3 -8 -1 -11 4 -8 5 3
10 -37 11 -89 1 -52 -3 -94 -8 -94 -5 0 -9 -9 -9 -20 0 -11 4 -20 10 -20 22 0
43 56 57 151 22 151 30 170 92 223 30 25 60 46 67 46 8 0 9 10 5 33 l-7 32
-77 3 -77 3 -2 -48 -1 -48 -6 45 -6 45 -136 3 c-74 1 -138 -1 -142 -4z"/>
<path d="M768 1334 c17 -8 82 -108 82 -128 0 -9 4 -16 10 -16 5 0 12 -11 16
-25 3 -14 10 -22 15 -19 5 3 6 -3 2 -12 -4 -12 -3 -15 5 -10 8 5 10 1 5 -10
-4 -11 -2 -15 4 -11 6 4 10 1 10 -6 -1 -6 27 -68 62 -137 36 -69 97 -192 136
-275 39 -82 94 -194 122 -247 52 -100 56 -123 25 -152 -22 -19 -399 -230 -437
-244 -39 -14 -11 -15 40 -1 40 10 146 58 155 70 3 4 32 20 65 36 84 41 232
139 245 163 16 30 12 54 -24 132 -18 40 -43 96 -56 123 -12 28 -31 68 -41 91
-11 22 -19 45 -19 51 0 6 -4 13 -8 15 -11 4 -80 124 -118 203 -16 33 -32 62
-36 65 -4 3 -14 21 -23 40 -23 49 -90 176 -122 232 -32 53 -45 63 -93 72 -19
3 -29 3 -22 0z"/>
<path d="M4900 1114 c-52 -108 -96 -199 -98 -203 -1 -4 17 -16 40 -28 l43 -20
95 199 c52 110 97 204 98 209 3 8 -57 39 -75 39 -4 0 -51 -88 -103 -196z"/>
<path d="M4731 1283 c-1 -7 -8 -13 -16 -13 -10 0 -15 -10 -15 -33 0 -19 -3
-37 -7 -41 -4 -4 -6 -24 -5 -44 3 -38 -54 -461 -63 -470 -3 -3 -5 1 -5 9 0 41
40 421 45 429 3 6 -1 10 -9 10 -8 0 -13 -6 -11 -12 5 -13 -47 -460 -61 -528
-7 -33 -8 -34 -15 -10 -4 14 -8 45 -9 70 -2 42 -3 40 -15 -30 -14 -85 -9 -100
37 -100 32 0 88 25 88 40 0 5 6 56 14 112 8 57 18 133 21 169 6 62 8 66 28 63
12 -2 16 -2 9 2 -7 3 -17 14 -22 25 -10 17 -8 18 15 9 15 -6 28 -10 31 -10 4
0 59 117 68 148 5 14 1 21 -14 25 -17 4 -26 -6 -55 -64 -20 -38 -39 -69 -45
-69 -10 0 14 89 35 131 12 22 11 26 -5 37 -19 11 -19 13 0 54 l19 43 -22 18
c-13 10 -15 15 -6 12 10 -4 19 1 23 11 5 14 4 15 -8 5 -11 -9 -15 -9 -19 1 -4
10 -6 10 -6 1z"/>
<path d="M565 1106 c-126 -68 -231 -128 -233 -134 -3 -10 394 -818 406 -826
11 -6 482 258 482 270 0 16 -407 808 -417 811 -4 2 -111 -53 -238 -121z"/>
<path d="M1614 1047 c-3 -8 -4 -45 -2 -83 l3 -69 63 -3 c85 -4 92 3 92 94 l0
74 -75 0 c-54 0 -77 -4 -81 -13z"/>
<path d="M5310 830 c0 -6 -12 -9 -27 -8 -23 3 -30 -4 -55 -52 -15 -30 -28 -60
-28 -66 0 -9 60 -44 76 -44 5 0 74 143 74 154 0 3 -9 10 -20 16 -14 8 -20 8
-20 0z"/>
</g>
</svg>
